<?xml version="1.0" encoding="UTF-8"?>
<svg width="24px" height="24px" viewBox="0 0 24 24" version="1.1" xmlns="http://www.w3.org/2000/svg" xmlns:xlink="http://www.w3.org/1999/xlink">
    <!--Generator: Sketch 64 (93537) - https://sketch.com-->
    <title>
        x5/icon/actions
    </title>
    <desc>
        Created with Sketch.
    </desc>
    <g id=".x5/icon/actions" stroke="none" stroke-width="1" fill-rule="evenodd">
        <path d="M6.10575807,3.45359558 C5.63761441,2.51675365 6.74186964,1.58179573 7.58868635,2.19802034 L18.5888094,10.2027592 C19.2248457,10.6655999 19.1021535,11.6476772 18.371797,11.9398126 L14.3805142,13.5362864 L17.8948242,20.5690699 C18.3629679,21.5059118 17.2587126,22.4408697 16.4118959,21.8246451 L5.41177285,13.8199062 C4.77573659,13.3570656 4.89842882,12.3749883 5.62878526,12.0828529 L9.62006806,10.4863791 L6.10575807,3.45359558 Z M11.8948242,10.564331 C12.1562976,11.0875875 11.9147877,11.7225724 11.3716739,11.9398126 L8.05195924,13.2676658 L14.2724523,17.7942899 L12.1057581,13.4583345 C11.8442847,12.9350779 12.0857946,12.300093 12.6289084,12.0828529 L15.948623,10.7549997 L9.72812998,6.22837555 L11.8948242,10.564331 Z" id="Path-2"/>
    </g>
</svg>
