<svg xmlns="http://www.w3.org/2000/svg" xmlns:xlink="http://www.w3.org/1999/xlink" width="202" height="202" viewBox="0 0 202 202">
    <defs>
        <circle id="a" cx="101" cy="101" r="101"/>
        <path id="c" d="M0 0h210v210H0z"/>
        <path id="e" d="M0 .614v45.67h64.44V.614H0z"/>
    </defs>
    <g fill="none" fill-rule="evenodd">
        <mask id="b" fill="#fff">
            <use xlink:href="#a"/>
        </mask>
        <use fill="#D8D8D8" fill-rule="nonzero" xlink:href="#a"/>
        <g mask="url(#b)">
            <g transform="translate(-4 -4)">
                <mask id="d" fill="#fff">
                    <use xlink:href="#c"/>
                </mask>
                <use fill="#E9EBEE" xlink:href="#c"/>
                <g mask="url(#d)">
                    <path fill="#FFF" stroke="#313131" d="M58.62 81.415c-3.607.397-4.907 1.428-6.115 4.324-1.094 2.624-1.27 6.083-.69 9.06 1.3 6.699 3.722 9.315 10.46 10.18.05 5.664.648 12.175 1.31 17.67.93 7.709 1.575 8.866 6.511 12.49 4.101 3.009 23.558 13.3 24.048 14.42a21.531 21.531 0 0 1-.253 3.866c-2.002-1.01-3.96-1.751-6.116-1.547-.569 7.447-1.64 8.158-5.536 12.172-3.75 1.116-6.219 2.44-8.41 4.569-4.433 4.313-.818 2.776-7.738 4.663-7.134 1.947-34.045 8.004-36.588 13.859-1.155 2.656-2.435 18.423-2.555 22.341 18.652.75 48.977-.954 64.441.238l14.005.023 14.713-.218c11.674.687 51.957.139 64.257.131-.19-4.66-1.144-18.492-2.371-22.113-2.213-6.526-31-12.75-36.925-14.33-11.219-2.993-2.992-5.353-16.624-9.407-1.356-2.122-1.978-2.716-3.353-4.538-3.152-4.18-.806-3.41-1.938-7.281-.951-.252-2.297.002-3.834.52-.111-1.205-.16-2.382-.204-3.398 2.58-2.696 17.773-10.095 23.326-14.1 4.398-3.173 5.364-5.216 6.253-12.227.734-5.792.905-11.536 1.355-17.328l.785-.36c.562-.194.547-.2 1.164-.352 5.01-1.235 7.098-3.466 8.463-9.914.782-3.7.304-9.46-2.676-12.093a4.733 4.733 0 0 0-1.766-.976c.598-1.184 1.117-2.322 1.907-3.53.937-2.05 1.124-1.89 3.363-2.921-.121-5.564-1.301-2.975.577-6.26.062-.108.164-.25.222-.367 2.977-6.018 2.575-15.252-2.16-21.403-2.814-3.654-3.702-3.221-7.82-5.71l4.756.854c-1.088-5.015-5.088-8.849-9.02-11.053-6.073-3.405-12.11-3.017-17.245-5.197l6.11-.853c-5.576-.923-12.496-6.57-28.731-5.904-8.485 1.025-13.489 2.139-19.882 5.91-3.65 2.154-2.162 1.344-7.244.86-10.637-1.01-20.882 5.05-21.5 11.197 1.27-1.527 3.564-2.6 6.467-3.101l-4.306 3.038c-.994.822-2.772 2.427-3.594 3.436-2.04 2.5-3.372 5.765-4.266 8.978-.968 3.485-1.038 7.893-.59 11.587l2.411 7.424c1.614 2.427-.675-1.358 1.507 1.381-1.689 7.022.504 4.46 1.559 6.422a49.847 49.847 0 0 0 .08 4.868"/>
                    <path fill="#FFF" stroke="#313131" d="M108.615 68.237l.287 1.288c6.385 3.374 5.378 4.38 9.305 5.781l-1.452-11.364 3.669 2.23c3.653 2.282 8.075 4.508 13.027 5.345l-1.902-4.435c.7.287.337.736 2.441 1.802 3.326 1.687 7.876 2.776 10.708 6.005 3.751 4.28 4.757 10.09 4.017 15.848 2.38-1.563 3.878-3.706 5.438-5.854 1.787-2.461 2.324-4.438 3.772-6.654.937-2.05 1.125-1.89 3.363-2.922-.121-5.563-1.3-2.974.578-6.26.062-.107.164-.25.222-.366 2.976-6.018 2.576-15.252-2.16-21.403-2.814-3.655-3.701-3.22-7.82-5.71l4.755.853c-1.087-5.014-5.087-8.848-9.019-11.052-6.073-3.405-12.11-3.017-17.245-5.197l6.11-.853c-5.576-.923-12.496-6.569-28.731-5.904-8.485 1.025-13.488 2.138-19.881 5.91-3.652 2.154-2.163 1.345-7.244.861-10.638-1.012-20.884 5.05-21.5 11.196 1.268-1.527 3.563-2.6 6.466-3.101l-4.307 3.038c-.993.822-2.77 2.427-3.593 3.435-2.04 2.5-3.372 5.766-4.266 8.979-.968 3.485-1.038 7.892-.591 11.587l2.411 7.424c1.614 2.427-.675-1.358 1.508 1.382-2.003 8.33 1.457 3.168 1.998 8.086 2.596 3.573 2.144 4.75 6.58 8.627 2.6 2.275 2.14 2.913 4.046 4.144.207-8.181-2.074-8.41 3.8-15.275 7.172-8.389 3.45-11.413 7.506-14.637 6.087 1.23 7.109 8.72 20.768 12.993-1.814-3.834-5.001-9.573 1.168-11.765 1.454 1.738 2.9 4.634 5.768 5.938"/>
                    <path fill="#313131" d="M111.334 29.6c.592-.259 30.234 10.598 35.843 29.104 1.218-.66-8.265-22.536-35.843-29.103z"/>
                    <path fill="#FAFAFA" stroke="#313131" d="M120.106 209.525c11.675.688 51.958.139 64.258.13-.189-4.66-1.144-18.491-2.371-22.112-2.213-6.526-31-12.75-36.925-14.33-11.219-2.994-2.992-5.354-16.624-9.408 2.978 7.655-.064 17.04-1.906 24.334l-6.432 21.386z"/>
                    <g transform="translate(26.948 163.436)">
                        <mask id="f" fill="#fff">
                            <use xlink:href="#e"/>
                        </mask>
                        <path fill="#FAFAFA" stroke="#313131" d="M55.29.614c-3.75 1.116-6.218 2.44-8.41 4.568-4.433 4.314-.817 2.777-7.737 4.664-7.135 1.946-34.046 8.003-36.588 13.858C1.4 26.361.12 42.128 0 46.046c15.7.63 61.995.05 64.44.238-3.53-15.86-10.645-25.51-9.15-45.67z" mask="url(#f)"/>
                    </g>
                    <path fill="#FAFAFA" stroke="#313131" d="M105.394 209.743l14.713-.219 6.432-21.384c1.84-7.295 4.883-16.68 1.905-24.334-1.356-2.121-1.978-2.716-3.353-4.538-3.152-4.18-.806-3.41-1.938-7.281-3.291-.871-11.296 4.313-15.695 5.497-8.852 1.164-13.426-6.2-19.684-5.606-.567 7.447-1.638 8.157-5.535 12.172-1.495 20.16 5.62 29.81 9.15 45.67l14.005.023z"/>
                    <path fill="#313131" d="M89.297 157.413c-.445.37 3.968 10.44 17.41 9.152-.221.155-13.45-1.947-17.41-9.152"/>
                </g>
            </g>
        </g>
    </g>
</svg>
