<?xml version="1.0" encoding="UTF-8"?>
<svg width="24px" height="24px" viewBox="0 0 24 24" version="1.1" xmlns="http://www.w3.org/2000/svg" xmlns:xlink="http://www.w3.org/1999/xlink">
    <!-- Generator: Sketch 64 (93537) - https://sketch.com -->
    <title>x5/icon/Basket</title>
    <desc>Created with Sketch.</desc>
    <g id=".x5/icon/Basket" stroke="none" stroke-width="1"  fill-rule="evenodd">
        <g transform="translate(3.000000, 5.000000)" fill="#171718" id="Shape">
            <path d="M13.0056533,0.559073183 L14.592528,4.09388435 L14.9942871,4.09410546 C16.6542965,4.09410546 18,5.46885055 18,7.16468456 C18,7.25749324 17.9958812,7.3502542 17.9876562,7.44268173 L17.0229128,12.2074181 C16.8821691,13.7890094 15.5841081,15 14.0295437,15 L3.98950615,15 C2.43494181,15 1.13688075,13.7890094 0.996137108,12.2074181 L0.0125366434,7.44268173 C-0.137753545,5.75381216 1.08058915,4.26024929 2.73378123,4.1067157 C2.82425622,4.09831319 2.9150576,4.09410546 3.00590569,4.09410546 L3.39044413,4.09388435 L4.97753267,0.559073183 C5.22874217,0.0554067943 5.83206457,-0.144855083 6.32509097,0.11177576 C6.81811737,0.368406603 7.0141487,0.984749287 6.7629392,1.48841568 L5.63971928,4.09388435 L12.3432528,4.09388435 L11.2202468,1.48841568 C10.9690373,0.984749287 11.1650686,0.368406603 11.658095,0.11177576 C12.1511214,-0.144855083 12.7544438,0.0554067943 13.0056533,0.559073183 Z M14.5369908,5.99621885 L3.50685644,5.99621885 C3.43574297,5.99621885 3.36471918,6.00137529 3.29432044,6.01164929 C2.52099082,6.12450912 1.96976031,6.82002113 2.00544634,7.60126463 L2.01910446,7.74863113 L3.03244899,12.125657 C3.09753737,12.5911084 3.46273519,12.9460461 3.9106952,12.9978977 L4.02428364,13.0044349 L14.0103686,13.0044349 C14.470613,13.0044349 14.8662074,12.6853012 14.9798047,12.2396061 L15.0022033,12.125657 L16.0247428,7.74863113 C16.0347998,7.67671311 16.0398473,7.60415656 16.0398473,7.5315084 C16.0398473,6.68359139 15.3669955,5.99621885 14.5369908,5.99621885 Z M9.01713865,8.18821093 C9.57047512,8.18821093 10.0190429,8.64645929 10.0190429,9.21173729 L10.0190429,10.2352637 C10.0190429,10.8005417 9.57047512,11.25879 9.01713865,11.25879 C8.46380219,11.25879 8.01523436,10.8005417 8.01523436,10.2352637 L8.01523436,9.21173729 C8.01523436,8.64645929 8.46380219,8.18821093 9.01713865,8.18821093 Z M5.00952147,8.18821093 C5.56285794,8.18821093 6.01142577,8.64645929 6.01142577,9.21173729 L6.01142577,10.2352637 C6.01142577,10.8005417 5.56285794,11.25879 5.00952147,11.25879 C4.45618501,11.25879 4.00761718,10.8005417 4.00761718,10.2352637 L4.00761718,9.21173729 C4.00761718,8.64645929 4.45618501,8.18821093 5.00952147,8.18821093 Z M13.0247558,8.18821093 C13.5780923,8.18821093 14.0266601,8.64645929 14.0266601,9.21173729 L14.0266601,10.2352637 C14.0266601,10.8005417 13.5780923,11.25879 13.0247558,11.25879 C12.4714194,11.25879 12.0228515,10.8005417 12.0228515,10.2352637 L12.0228515,9.21173729 C12.0228515,8.64645929 12.4714194,8.18821093 13.0247558,8.18821093 Z"></path>
        </g>
    </g>
</svg>