<svg xmlns="http://www.w3.org/2000/svg" width="16" height="16" viewBox="0 0 16 16">
    <path fill="#8B8B8B" fill-rule="evenodd" d="M15 0c.552 0 1 .448 1 1s-.448 1-1 1v8c.552 0 1 .448 1 1 0 .513-.386.936-.883.993L15 12h-4.15l2.775 2.22c.431.344.5.973.156 1.405-.345.431-.974.5-1.406.156L9 13.08V15c0 .552-.448 1-1 1s-1-.448-1-1v-1.921l-3.375 2.702c-.432.345-1.06.275-1.406-.156-.345-.432-.275-1.06.156-1.406L5.15 12H1c-.552 0-1-.448-1-1s.448-1 1-1V2c-.552 0-1-.448-1-1s.448-1 1-1h14zm-2 2H3v8h10V2z"/>
</svg>
