<?xml version="1.0" encoding="UTF-8"?>
<svg width="24px" height="24px" viewBox="0 0 24 24" version="1.1" xmlns="http://www.w3.org/2000/svg" xmlns:xlink="http://www.w3.org/1999/xlink">
    <!-- Generator: Sketch 64 (93537) - https://sketch.com -->
    <title>x5/icon/bubble</title>
    <desc>Created with Sketch.</desc>
    <g id=".x5/icon/bubble" stroke="none" stroke-width="1"  fill-rule="evenodd">
        <g transform="translate(3.000000, 4.000000)" fill="#171718" id="bubble">
            <path d="M8.49991921,4.08562073e-14 C13.194295,4.08562073e-14 16.9998384,3.80554346 16.9998384,8.49991921 C16.9998384,9.34759135 16.6270917,10.8549191 16.3005253,11.7902653 C16.5214744,12.4199081 16.718522,13.1493561 16.9521877,14.2708688 C17.2848332,15.8674495 15.8731369,17.2822975 14.2758183,16.9532132 C13.1463583,16.7205185 12.3451496,16.5246062 11.6889598,16.3345913 C10.7161835,16.6582989 9.23150539,16.9998384 8.49991921,16.9998384 C3.80554346,16.9998384 7.10542736e-15,13.194295 7.10542736e-15,8.49991921 C7.10542736e-15,3.80554346 3.80554346,4.08562073e-14 8.49991921,4.08562073e-14 Z M8.5,2 C4.91014913,2 2,4.91014913 2,8.5 C2,12.0898509 4.91014913,15 8.5,15 C9.20638443,15 11.1776534,14.4347283 11.4846589,14.2757591 L11.5727009,14.2313286 C11.8800413,14.086084 11.7550697,14.3314699 15,15 C14.2699251,11.4958986 13.8795851,12.2461391 14.2699251,11.4958986 C14.3361797,11.3685561 15,9.4270057 15,8.5 C15,4.91014913 12.0898509,2 8.5,2 Z M10.5,9 C11.0522847,9 11.5,9.44771525 11.5,10 C11.5,10.5522847 11.0522847,11 10.5,11 L6.5,11 C5.94771525,11 5.5,10.5522847 5.5,10 C5.5,9.44771525 5.94771525,9 6.5,9 L10.5,9 Z M10.5,6 C11.0522847,6 11.5,6.44771525 11.5,7 C11.5,7.55228475 11.0522847,8 10.5,8 L6.5,8 C5.94771525,8 5.5,7.55228475 5.5,7 C5.5,6.44771525 5.94771525,6 6.5,6 L10.5,6 Z"></path>
        </g>
    </g>
</svg>