<?xml version="1.0" encoding="UTF-8"?>
<svg width="24px" height="24px" viewBox="0 0 24 24" version="1.1" xmlns="http://www.w3.org/2000/svg" xmlns:xlink="http://www.w3.org/1999/xlink">
    <!-- Generator: Sketch 64 (93537) - https://sketch.com -->
    <title>x5/icon/clip</title>
    <desc>Created with Sketch.</desc>
    <g id=".x5/icon/clip" stroke="none" stroke-width="1"  fill-rule="evenodd">
        <g transform="translate(4.000000, 4.000000)" fill="#171718" id="Path-2">
            <path d="M7.14074107,0.282264109 C7.52489489,-0.0973057525 8.14401526,-0.0935897206 8.52358512,0.290564099 C8.90315498,0.674717918 8.89943895,1.29383829 8.51528513,1.67340815 C5.72708961,4.42833322 3.80082281,6.36046072 2.74069995,7.46534773 C1.58370137,8.67120108 1.73807503,10.9806671 2.99876066,12.1850713 C4.39492345,13.5189045 6.50243961,13.5559356 8.21910146,11.9333035 C8.71310155,11.4663621 9.24649172,10.9487124 9.81594241,10.3847163 C10.0146203,10.1879414 10.2172443,9.98596203 10.4237469,9.77889872 C11.7068057,8.49235643 11.5570597,8.61245161 13.5002742,6.57923382 C14.2918489,5.75099606 14.1793018,4.47767099 13.3794991,3.6332865 C12.7156823,2.93246794 11.313371,2.902355 10.4532079,3.68436788 C9.43181751,4.6129597 7.74798883,6.31964548 5.55501028,8.58406133 C4.98186551,9.17587657 5.02327313,9.62644261 5.33932283,9.87508483 C5.61123411,10.0890025 6.15772931,10.0380399 6.60778259,9.54248686 C7.22125287,8.86699558 8.86168173,7.22626723 11.5535726,4.59429073 C11.9397144,4.21674344 12.5588068,4.22371065 12.936354,4.60985244 C13.3139013,4.99599423 13.3069341,5.61508655 12.9207923,5.99263384 C10.261806,8.59243813 8.63187945,10.2226622 8.05551614,10.8572951 C6.92078622,12.1067447 5.21522544,12.2657943 4.13011214,11.4121153 C2.91969433,10.4598569 2.75469426,8.66445248 4.15015891,7.22352991 C6.37837768,4.92272587 8.07216704,3.20599388 9.13763772,2.23732665 C10.7754338,0.74833274 13.3938383,0.804559803 14.7993424,2.28840804 C16.2684319,3.83938609 16.4847738,6.28701474 14.9140812,7.93045661 C12.9610099,9.97398766 13.104804,9.86005755 11.8084893,11.1598917 C11.5992067,11.3697425 11.3937406,11.574555 11.1921406,11.774224 C10.6124744,12.3483378 10.0683508,12.8764042 9.56249834,13.3545487 C7.07957923,15.7014666 3.78783747,15.6436275 1.64781656,13.5991446 C-0.367986002,11.6733345 -0.604997636,8.12758508 1.32954014,6.11136061 C2.40512525,4.99035846 4.34078715,3.04880727 7.14074107,0.282264109 Z"></path>
        </g>
    </g>
</svg>