<svg xmlns="http://www.w3.org/2000/svg" width="16" height="16" viewBox="0 0 16 16">
    <path fill="#8B8B8B" fill-rule="evenodd" d="M8 0c4.418 0 8 3.582 8 8s-3.582 8-8 8-8-3.582-8-8 3.582-8 8-8zm0 2C4.686 2 2 4.686 2 8s2.686 6 6 6 6-2.686 6-6-2.686-6-6-6zm0 1c.552 0 1 .448 1 1v3.585l2.707 2.708c.39.39.39 1.024 0 1.414-.39.39-1.024.39-1.414 0l-3-3-.073-.082-.007-.008.08.09c-.036-.035-.068-.073-.097-.112-.018-.024-.034-.049-.05-.074l-.021-.037c-.011-.02-.022-.04-.031-.06L7.07 8.37l-.021-.06-.014-.045-.016-.065-.009-.053-.007-.058L7 8.02V4c0-.552.448-1 1-1z"/>
</svg>
