<?xml version="1.0" encoding="UTF-8"?>
<svg width="24px" height="24px" viewBox="0 0 24 24" version="1.1" xmlns="http://www.w3.org/2000/svg" xmlns:xlink="http://www.w3.org/1999/xlink">
    <!-- Generator: Sketch 64 (93537) - https://sketch.com -->
    <title>x5/icon/close</title>
    <desc>Created with Sketch.</desc>
    <g id=".x5/icon/close" stroke="none" stroke-width="1"  fill-rule="evenodd">
        <g transform="translate(5.000000, 5.000000)" fill="#171718" id="Combined-Shape">
            <path d="M1.70698239,0.292768847 L7,5.583 L12.2930176,0.292768847 C12.6836106,-0.097686744 13.3167756,-0.0975753677 13.7072312,0.293017613 C14.0976867,0.683610593 14.0975754,1.31677556 13.7069824,1.70723115 L8.414,6.997 L13.7069824,12.2878444 C14.0975754,12.6783 14.0976867,13.311465 13.7072312,13.7020579 C13.3167756,14.0926509 12.6836106,14.0927623 12.2930176,13.7023067 L7,8.411 L1.70698239,13.7023067 C1.31638941,14.0927623 0.683224438,14.0926509 0.292768847,13.7020579 C-0.097686744,13.311465 -0.0975753677,12.6783 0.293017613,12.2878444 L5.585,6.997 L0.293017613,1.70723115 C-0.0975753677,1.31677556 -0.097686744,0.683610593 0.292768847,0.293017613 C0.683224438,-0.0975753677 1.31638941,-0.097686744 1.70698239,0.292768847 Z"></path>
        </g>
    </g>
</svg>