<?xml version="1.0" encoding="UTF-8"?>
<svg width="24px" height="24px" viewBox="0 0 24 24" version="1.1" xmlns="http://www.w3.org/2000/svg" xmlns:xlink="http://www.w3.org/1999/xlink">
    <!-- Generator: Sketch 64 (93537) - https://sketch.com -->
    <title>x5/icon/configure</title>
    <desc>Created with Sketch.</desc>
    <g id=".x5/icon/configure" stroke="none" stroke-width="1"  fill-rule="evenodd">
        <path d="M8,2 C8.55228475,2 9,2.44771525 9,3 L9.00090072,6.17102423 C10.1656226,6.58311485 11,7.69411778 11,9 C11,10.3058822 10.1656226,11.4168852 9.00090072,11.8289758 L9,21 C9,21.5522847 8.55228475,22 8,22 C7.44771525,22 7,21.5522847 7,21 L7.00008893,11.8293257 C5.8348501,11.4175144 5,10.3062521 5,9 C5,7.69374794 5.8348501,6.58248558 7.00008893,6.17067428 L7,3 C7,2.44771525 7.44771525,2 8,2 Z M16,2 C16.5522847,2 17,2.44771525 17,3 L17.0009007,12.1710242 C18.1656226,12.5831148 19,13.6941178 19,15 C19,16.3058822 18.1656226,17.4168852 17.0009007,17.8289758 L17,21 C17,21.5522847 16.5522847,22 16,22 C15.4477153,22 15,21.5522847 15,21 L15.0000889,17.8293257 C13.8348501,17.4175144 13,16.3062521 13,15 C13,13.6937479 13.8348501,12.5824856 15.0000889,12.1706743 L15,3 C15,2.44771525 15.4477153,2 16,2 Z M16,14 C15.4477153,14 15,14.4477153 15,15 C15,15.5522847 15.4477153,16 16,16 C16.5522847,16 17,15.5522847 17,15 C17,14.4477153 16.5522847,14 16,14 Z M8,8 C7.44771525,8 7,8.44771525 7,9 C7,9.55228475 7.44771525,10 8,10 C8.55228475,10 9,9.55228475 9,9 C9,8.44771525 8.55228475,8 8,8 Z" id="Combined-Shape" fill="#171718"></path>
    </g>
</svg>