<?xml version="1.0" encoding="UTF-8"?>
<svg width="24px" height="24px" viewBox="0 0 24 24" version="1.1" xmlns="http://www.w3.org/2000/svg" xmlns:xlink="http://www.w3.org/1999/xlink">
    <!-- Generator: Sketch 64 (93537) - https://sketch.com -->
    <title>x5/icon/Delate</title>
    <desc>Created with Sketch.</desc>
    <g id=".x5/icon/Delate" stroke="none" stroke-width="1"  fill-rule="evenodd">
        <g transform="translate(4.000000, 3.000000)"  id="Combined-Shape">
            <path d="M15,5 L15,15 C15,16.6568542 13.6568542,18 12,18 L4,18 C2.34314575,18 1,16.6568542 1,15 L1,5 L15,5 Z M13,7 L3,7 L3,15 C3,15.5522847 3.44771525,16 4,16 L12,16 C12.5522847,16 13,15.5522847 13,15 L13,7 Z M6,9 C6.55228475,9 7,9.44771525 7,10 L7,13 C7,13.5522847 6.55228475,14 6,14 C5.44771525,14 5,13.5522847 5,13 L5,10 C5,9.44771525 5.44771525,9 6,9 Z M10,9 C10.5522847,9 11,9.44771525 11,10 L11,13 C11,13.5522847 10.5522847,14 10,14 C9.44771525,14 9,13.5522847 9,13 L9,10 C9,9.44771525 9.44771525,9 10,9 Z M8,0 C8.55228475,-3.38176876e-17 9,0.44771525 9,1 L9,2 L15,2 C15.5522847,2 16,2.44771525 16,3 C16,3.55228475 15.5522847,4 15,4 L1,4 C0.44771525,4 0,3.55228475 0,3 C0,2.44771525 0.44771525,2 1,2 L7,2 L7,2 L7,1 C7,0.44771525 7.44771525,3.38176876e-17 8,0 Z"></path>
        </g>
    </g>
</svg>