<?xml version="1.0" encoding="UTF-8"?>
<svg width="24px" height="24px" viewBox="0 0 24 24" version="1.1" xmlns="http://www.w3.org/2000/svg" xmlns:xlink="http://www.w3.org/1999/xlink">
    <!-- Generator: Sketch 64 (93537) - https://sketch.com -->
    <title>x5/icon/download</title>
    <desc>Created with Sketch.</desc>
    <g id=".x5/icon/download" stroke="none" stroke-width="1"  fill-rule="evenodd">
        <g transform="translate(6.000000, 4.000000)" fill="#171718" id="Combined-Shape">
            <path d="M11,14 C11.5522847,14 12,14.4477153 12,15 C12,15.5522847 11.5522847,16 11,16 L1,16 C0.44771525,16 0,15.5522847 0,15 C0,14.4477153 0.44771525,14 1,14 L11,14 Z M6,0 C6.55228475,0 7,0.44771525 7,1 L7,10.585 L10.2928932,7.29289322 C10.6834175,6.90236893 11.3165825,6.90236893 11.7071068,7.29289322 C12.0976311,7.68341751 12.0976311,8.31658249 11.7071068,8.70710678 L6.70710678,13.7071068 C6.67864047,13.7355731 6.64846592,13.7623312 6.61675008,13.787214 L6.70710678,13.7071068 C6.67171273,13.7425008 6.63432558,13.774687 6.59530661,13.8036654 C6.57113069,13.8215099 6.54627495,13.8382813 6.52066019,13.8539326 C6.50861311,13.8613931 6.49639444,13.8685012 6.4840621,13.8753288 C6.46429395,13.8862061 6.4438914,13.8966234 6.42309915,13.9063462 C6.4060985,13.914321 6.38879565,13.9218036 6.37133602,13.9287745 C6.3515792,13.9366843 6.33179768,13.9438775 6.31173641,13.9504533 C6.29685134,13.9552713 6.28146328,13.9599023 6.26599297,13.9641549 C6.24443648,13.9701664 6.22274608,13.9753602 6.2007941,13.9798348 C6.19264345,13.981408 6.18454469,13.9829554 6.17643151,13.9844021 L6.14896122,13.9889807 C6.12811445,13.9920941 6.10705742,13.994564 6.08581099,13.9963697 L6.05903139,13.9982669 L6.05903139,13.9982669 L6.03353519,13.9994483 C6.02240189,13.9998151 6.01122253,14 6,14 L5.967,13.998 L5.94096861,13.9982669 C5.93189536,13.9977336 5.92282798,13.9970773 5.9137692,13.9962979 L6,14 C5.94937972,14 5.89963791,13.9962388 5.85103878,13.9889807 C5.83405099,13.9863719 5.81662474,13.9832978 5.79927424,13.9797599 C5.77725392,13.9753602 5.75556352,13.9701664 5.73416039,13.964279 C5.71853672,13.9599023 5.70314866,13.9552713 5.68785748,13.9502619 C5.66820232,13.9438775 5.6484208,13.9366843 5.62894148,13.928896 C5.61120435,13.9218036 5.5939015,13.914321 5.57677845,13.9063266 C5.5561086,13.8966234 5.53570605,13.8862061 5.51572305,13.8751242 C5.50360556,13.8685012 5.49138689,13.8613931 5.47929125,13.8540045 C5.45372505,13.8382813 5.42886931,13.8215099 5.4048407,13.8036865 C5.39739696,13.7982466 5.39015759,13.7927155 5.38297765,13.7870723 C5.35153408,13.7623312 5.32135953,13.7355731 5.29289322,13.7071068 L0.292893219,8.70710678 C-0.0976310729,8.31658249 -0.0976310729,7.68341751 0.292893219,7.29289322 C0.683417511,6.90236893 1.31658249,6.90236893 1.70710678,7.29289322 L5,10.585 L5,1 C5,0.44771525 5.44771525,0 6,0 Z"></path>
        </g>
    </g>
</svg>