<?xml version="1.0" encoding="UTF-8"?>
<svg width="24px" height="24px" viewBox="0 0 24 24" version="1.1" xmlns="http://www.w3.org/2000/svg" xmlns:xlink="http://www.w3.org/1999/xlink">
    <!-- Generator: Sketch 64 (93537) - https://sketch.com -->
    <title>x5/icon/edit</title>
    <desc>Created with Sketch.</desc>
    <g id=".x5/icon/edit" stroke="none" stroke-width="1"  fill-rule="evenodd">
        <g transform="translate(5.000000, 4.000000)" id="Combined-Shape">
            <path d="M2,13.413773 L4.58578644,13.413773 L10.5857864,7.41377295 L8,4.82798652 L2,10.8279865 L2,13.413773 Z M8.70710678,2.70666617 L12.7071068,6.70666617 C13.0976311,7.09719046 13.0976311,7.73035544 12.7071068,8.12087973 L5.70710678,15.1208797 C5.5195704,15.3084161 5.26521649,15.413773 5,15.413773 L1,15.413773 C0.44771525,15.413773 2.39808173e-14,14.9660577 2.39808173e-14,14.413773 L2.39808173e-14,10.413773 C2.39808173e-14,10.1485565 0.10535684,9.89420255 0.292893219,9.70666617 L7.29289322,2.70666617 C7.68341751,2.31614188 8.31658249,2.31614188 8.70710678,2.70666617 Z M9.79285427,0.292932167 C10.1833571,-0.0976136342 10.816522,-0.0976485083 11.2070678,0.292854273 L11.2070678,0.292854273 L15.2070678,4.29241366 C15.5976136,4.68291645 15.5976485,5.31608142 15.2071457,5.70662722 C14.8166429,6.09717303 14.183478,6.0972079 13.7929322,5.70670512 L13.7929322,5.70670512 L9.79293217,1.70714573 C9.40238637,1.31664295 9.40235149,0.683477968 9.79285427,0.292932167 Z"></path>
        </g>
    </g>
</svg>