<?xml version="1.0" encoding="UTF-8"?>
<svg width="24px" height="24px" viewBox="0 0 24 24" version="1.1" xmlns="http://www.w3.org/2000/svg" xmlns:xlink="http://www.w3.org/1999/xlink">
    <!-- Generator: Sketch 64 (93537) - https://sketch.com -->
    <title>x5/icon/Exit</title>
    <desc>Created with Sketch.</desc>
    <g id=".x5/icon/Exit" stroke="none" stroke-width="1"  fill-rule="evenodd">
        <g transform="translate(4.000000, 2.000000)" fill="#171718" id="exit">
            <path d="M11.0043194,0 C12.6611737,0 14.0043194,1.34314575 14.0043194,3 L14.0043194,17 C14.0043194,18.6568542 12.6611737,20 11.0043194,20 L7,20 C6.44771525,20 6,19.5522847 6,19 C6,18.4477153 6.44771525,18 7,18 L11.0043194,18 C11.5566042,18 12.0043194,17.5522847 12.0043194,17 L12.0043194,3 C12.0043194,2.44771525 11.5566042,2 11.0043194,2 L7,2 C6.44771525,2 6,1.55228475 6,1 C6,0.44771525 6.44771525,0 7,0 L11.0043194,0 Z M6.70710678,5.29289322 L10.7071068,9.29289322 C10.7349921,9.32077858 10.7612383,9.35030318 10.7856883,9.38131006 L10.7071068,9.29289322 C10.7425008,9.32828727 10.774687,9.36567442 10.8036654,9.40469339 C10.8215099,9.42886931 10.8382813,9.45372505 10.8539326,9.47933981 C10.8613931,9.49138689 10.8685012,9.50360556 10.8753288,9.5159379 C10.8862061,9.53570605 10.8966234,9.5561086 10.9063462,9.57690085 C10.914321,9.5939015 10.9218036,9.61120435 10.9287745,9.62866398 C10.9366843,9.6484208 10.9438775,9.66820232 10.9504533,9.68826359 C10.9552713,9.70314866 10.9599023,9.71853672 10.9641549,9.73400703 C10.9701664,9.75556352 10.9753602,9.77725392 10.9798348,9.7992059 C10.9832978,9.81662474 10.9863719,9.83405099 10.9889822,9.85153313 C10.9920328,9.87147534 10.9944666,9.89211395 10.9962623,9.91293499 C10.9978436,9.93173451 10.9989053,9.94973363 10.9994829,9.96774538 C10.9998183,9.97778921 11,9.98887338 11,10 L10.9994506,10.0332468 C10.9988772,10.050591 10.997855,10.0679231 10.996384,10.0852242 L11,10 C11,10.0506203 10.9962388,10.1003621 10.9889807,10.1489612 C10.9863719,10.165949 10.9832978,10.1833753 10.9797599,10.2007258 C10.9753602,10.2227461 10.9701664,10.2444365 10.964279,10.2658396 C10.9599023,10.2814633 10.9552713,10.2968513 10.9502619,10.3121425 C10.9438775,10.3317977 10.9366843,10.3515792 10.928896,10.3710585 C10.9218036,10.3887956 10.914321,10.4060985 10.9063266,10.4232215 C10.8966234,10.4438914 10.8862061,10.4642939 10.8751242,10.484277 C10.8685012,10.4963944 10.8613931,10.5086131 10.8540045,10.5207088 C10.8507712,10.525834 10.8475642,10.5309769 10.844312,10.5360882 L10.808746,10.588404 C10.8012042,10.5987432 10.7934394,10.6089704 10.7854516,10.6190789 C10.7839054,10.6209509 10.7821131,10.6232039 10.7803112,10.625449 L10.7071068,10.7071068 L10.7071068,10.7071068 L6.70710678,14.7071068 C6.31658249,15.0976311 5.68341751,15.0976311 5.29289322,14.7071068 C4.90236893,14.3165825 4.90236893,13.6834175 5.29289322,13.2928932 L7.584,11 L1,11 C0.44771525,11 0,10.5522847 0,10 C0,9.44771525 0.44771525,9 1,9 L7.585,9 L5.29289322,6.70710678 C4.90236893,6.31658249 4.90236893,5.68341751 5.29289322,5.29289322 C5.68341751,4.90236893 6.31658249,4.90236893 6.70710678,5.29289322 Z"></path>
        </g>
    </g>
</svg>