<?xml version="1.0" encoding="UTF-8"?>
<svg width="24px" height="24px" viewBox="0 0 24 24" version="1.1" xmlns="http://www.w3.org/2000/svg" xmlns:xlink="http://www.w3.org/1999/xlink">
    <!-- Generator: Sketch 64 (93537) - https://sketch.com -->
    <title>x5/icon/filter</title>
    <desc>Created with Sketch.</desc>
    <g id=".x5/icon/filter" stroke="none" stroke-width="1"  fill-rule="evenodd">
        <g transform="translate(5.000000, 5.000000)" fill="#171718" id="Rectangle">
            <path d="M2.00026771,2 L6.04401837,8.47000106 C6.14335062,8.62893266 6.19602007,8.81258028 6.19602007,9 L6.19602007,13.381966 L8.19602007,12.381966 L8.19602007,9.00318042 C8.19602007,8.81582142 8.24865542,8.63223081 8.34792711,8.47333296 L12.3921524,2 L2.00026771,2 Z M4.19602007,9.28679623 L0.304271101,3.05999788 C-0.281149563,2.12332482 0.00359676691,0.889424056 0.940269829,0.304003392 C1.25813303,0.10533889 1.62542828,0 2.00026771,0 L12.3921524,0 C13.4967219,0 14.3921524,0.8954305 14.3921524,2 C14.3921524,2.374718 14.2868817,2.74189922 14.0883383,3.05969492 L10.1960201,9.28987999 L10.1960201,12.381966 C10.1960201,13.1395101 9.76801532,13.8320364 9.09044726,14.1708204 L7.09044726,15.1708204 C6.10249026,15.6647989 4.90114418,15.2643502 4.40716569,14.2763932 C4.26831025,13.9986823 4.19602007,13.6924562 4.19602007,13.381966 L4.19602007,9.28679623 Z"></path>
        </g>
    </g>
</svg>