<?xml version="1.0" encoding="UTF-8"?>
<svg width="24px" height="24px" viewBox="0 0 24 24" version="1.1" xmlns="http://www.w3.org/2000/svg" xmlns:xlink="http://www.w3.org/1999/xlink">
    <!-- Generator: Sketch 64 (93537) - https://sketch.com -->
    <title>x5/icon/plus</title>
    <desc>Created with Sketch.</desc>
    <g id=".x5/icon/plus" stroke="none" stroke-width="1"  fill-rule="evenodd">
        <g transform="translate(4.000000, 4.000000)" fill="#171718" id="Combined-Shape">
            <path d="M8,0 C8.55228475,0 9,0.44771525 9,1 L9,7 L15,7 C15.5522847,7 16,7.44771525 16,8 C16,8.55228475 15.5522847,9 15,9 L9,9 L9,14.9995141 C9,15.5517988 8.55228475,15.9995141 8,15.9995141 C7.44771525,15.9995141 7,15.5517988 7,14.9995141 L7,9 L1,9 C0.44771525,9 0,8.55228475 0,8 C0,7.44771525 0.44771525,7 1,7 L7,7 L7,1 C7,0.44771525 7.44771525,0 8,0 Z"></path>
        </g>
    </g>
</svg>