<?xml version="1.0" encoding="UTF-8"?>
<svg width="24px" height="24px" viewBox="0 0 24 24" version="1.1" xmlns="http://www.w3.org/2000/svg" xmlns:xlink="http://www.w3.org/1999/xlink">
    <!-- Generator: Sketch 64 (93537) - https://sketch.com -->
    <title>x5/icon/search</title>
    <desc>Created with Sketch.</desc>
    <g id=".x5/icon/search" stroke="none" stroke-width="1"  fill-rule="evenodd">
        <g transform="translate(4.000000, 4.000000)" id="Combined-Shape">
            <path d="M6,-8.8817842e-16 C9.3137085,-8.8817842e-16 12,2.6862915 12,6 C12,7.2954479 11.5894515,8.49500707 10.8913664,9.47566569 L15.2071068,13.7928932 C15.5976311,14.1834175 15.5976311,14.8165825 15.2071068,15.2071068 C14.8165825,15.5976311 14.1834175,15.5976311 13.7928932,15.2071068 L13.7928932,15.2071068 L9.47566569,10.8913664 C8.49500707,11.5894515 7.2954479,12 6,12 C2.6862915,12 0,9.3137085 0,6 C0,2.6862915 2.6862915,-8.8817842e-16 6,-8.8817842e-16 Z M6,2 C3.790861,2 2,3.790861 2,6 C2,8.209139 3.790861,10 6,10 C8.209139,10 10,8.209139 10,6 C10,3.790861 8.209139,2 6,2 Z"></path>
        </g>
    </g>
</svg>