<?xml version="1.0" encoding="UTF-8"?>
<svg width="24px" height="24px" viewBox="0 0 24 24" version="1.1" xmlns="http://www.w3.org/2000/svg" xmlns:xlink="http://www.w3.org/1999/xlink">
    <!-- Generator: Sketch 64 (93537) - https://sketch.com -->
    <title>x5/icon/settings</title>
    <desc>Created with Sketch.</desc>
    <g id=".x5/icon/settings" stroke="none" stroke-width="1"  fill-rule="evenodd">
        <g transform="translate(3.000000, 3.000000)" fill="#171718" id="settings">
            <path d="M9,0 C9.55228475,0 10,0.44771525 10,1 L10,1 L10.0000082,2.07089004 C11.1854953,2.24046211 12.2751638,2.70706562 13.1912056,3.39289239 L14.2928932,2.29289322 C14.6834175,1.90236893 15.3165825,1.90236893 15.7071068,2.29289322 C16.0976311,2.68341751 16.0976311,3.31658249 15.7071068,3.70710678 L15.7071068,3.70710678 L14.6071076,4.80879437 C15.2929344,5.72483618 15.7595379,6.8145047 15.92911,7.99999177 L17,8 C17.5522847,8 18,8.44771525 18,9 C18,9.55228475 17.5522847,10 17,10 L17,10 L15.9289666,10.0010101 C15.759275,11.1861092 15.2927412,12.2754219 14.6071076,13.1912056 L15.7071068,14.2928932 C16.0976311,14.6834175 16.0976311,15.3165825 15.7071068,15.7071068 C15.3165825,16.0976311 14.6834175,16.0976311 14.2928932,15.7071068 L14.2928932,15.7071068 L13.1912056,14.6071076 C12.2751638,15.2929344 11.1854953,15.7595379 10.0000082,15.92911 L10,17 C10,17.5522847 9.55228475,18 9,18 C8.44771525,18 8,17.5522847 8,17 L8,17 L7.99898993,15.9289666 C6.81389079,15.759275 5.72457813,15.2927412 4.80879437,14.6071076 L3.70710678,15.7071068 C3.31658249,16.0976311 2.68341751,16.0976311 2.29289322,15.7071068 C1.90236893,15.3165825 1.90236893,14.6834175 2.29289322,14.2928932 L2.29289322,14.2928932 L3.39289239,13.1912056 C2.70725881,12.2754219 2.24072502,11.1861092 2.07103341,10.0010101 L1,10 C0.44771525,10 0,9.55228475 0,9 C0,8.44771525 0.44771525,8 1,8 L1,8 L2.07089004,7.99999177 C2.24046211,6.8145047 2.70706562,5.72483618 3.39289239,4.80879437 L2.29289322,3.70710678 C1.90236893,3.31658249 1.90236893,2.68341751 2.29289322,2.29289322 C2.68341751,1.90236893 3.31658249,1.90236893 3.70710678,2.29289322 L3.70710678,2.29289322 L4.80879437,3.39289239 C5.72457813,2.70725881 6.81389079,2.24072502 7.99898993,2.07103341 L8,1 C8,0.44771525 8.44771525,0 9,0 Z M9,4 C6.23857625,4 4,6.23857625 4,9 C4,11.7614237 6.23857625,14 9,14 C11.7614237,14 14,11.7614237 14,9 C14,6.23857625 11.7614237,4 9,4 Z M9,6 C10.6568542,6 12,7.34314575 12,9 C12,10.6568542 10.6568542,12 9,12 C7.34314575,12 6,10.6568542 6,9 C6,7.34314575 7.34314575,6 9,6 Z M9,8 C8.44771525,8 8,8.44771525 8,9 C8,9.55228475 8.44771525,10 9,10 C9.55228475,10 10,9.55228475 10,9 C10,8.44771525 9.55228475,8 9,8 Z"></path>
        </g>
    </g>
</svg>