<?xml version="1.0" encoding="UTF-8"?>
<svg width="24px" height="24px" viewBox="0 0 24 24" version="1.1" xmlns="http://www.w3.org/2000/svg" xmlns:xlink="http://www.w3.org/1999/xlink">
    <!-- Generator: Sketch 64 (93537) - https://sketch.com -->
    <title>x5/icon/Sort</title>
    <desc>Created with Sketch.</desc>
    <g id=".x5/icon/Sort" stroke="none" stroke-width="1"  fill-rule="evenodd">
        <g transform="translate(8.762050, 6.301708)" fill="#171718" id="Combined-Shape">
            <path d="M5.38716901,6.69829172 C5.69095273,6.69829172 5.97826563,6.83638144 6.16803781,7.07359667 C6.51304736,7.50485861 6.44312599,8.13415098 6.01186405,8.47916053 L6.01186405,8.47916053 L3.86264511,10.1985357 C3.49742646,10.4907106 2.97847367,10.4907106 2.61325502,10.1985357 L2.61325502,10.1985357 L0.464036077,8.47916053 C0.226820843,8.28938834 0.0887311242,8.00207544 0.0887311242,7.69829172 C0.0887311242,7.14600697 0.536446374,6.69829172 1.08873112,6.69829172 L1.08873112,6.69829172 Z M3.86264511,1.19804776 L6.01186405,2.91742291 C6.44312599,3.26243246 6.51304736,3.89172483 6.16803781,4.32298677 C5.97826563,4.560202 5.69095273,4.69829172 5.38716901,4.69829172 L1.08873112,4.69829172 C0.536446374,4.69829172 0.0887311242,4.25057647 0.0887311242,3.69829172 C0.0887311242,3.394508 0.226820843,3.1071951 0.464036077,2.91742291 L2.61325502,1.19804776 C2.97847367,0.905872838 3.49742646,0.905872838 3.86264511,1.19804776 Z"></path>
        </g>
    </g>
</svg>