<svg xmlns="http://www.w3.org/2000/svg" width="18" height="18" viewBox="0 0 18 18">
    <path fill="#8B8B8B" fill-rule="evenodd" d="M6.944 1.406L5.605 4.82l-3.582.305c-.561.047-1.082.308-1.458.729l-.11.133c-.694.909-.587 2.215.273 2.996l2.814 2.556-.843 3.752c-.13.579-.025 1.186.294 1.686l.094.136c.688.923 1.982 1.169 2.964.533L9 15.735l2.95 1.91c.499.324 1.107.432 1.687.3l.152-.041c1.1-.335 1.769-1.472 1.512-2.613l-.844-3.752 2.815-2.556c.416-.378.673-.9.72-1.461L18 7.364c.015-1.153-.859-2.14-2.023-2.24l-3.583-.304-1.338-3.414c-.224-.57-.673-1.022-1.24-1.249-1.138-.454-2.424.108-2.872 1.25zm2.13.609c.054.021.097.065.12.121l1.793 4.572 4.82.41c.114.01.202.114.192.237-.005.057-.03.11-.071.147l-3.678 3.34 1.1 4.888c.027.121-.046.239-.16.265-.052.012-.107.002-.154-.028L9 13.353l-4.036 2.614c-.096.062-.221.034-.284-.065-.033-.05-.043-.113-.03-.172l1.1-4.888-3.678-3.34c-.09-.081-.097-.225-.015-.316.035-.04.084-.064.136-.069l4.82-.41 1.793-4.57c.037-.093.126-.145.215-.136l.053.014z"/>
</svg>
