<?xml version="1.0" encoding="UTF-8"?>
<svg width="24px" height="24px" viewBox="0 0 24 24" version="1.1" xmlns="http://www.w3.org/2000/svg" xmlns:xlink="http://www.w3.org/1999/xlink">
    <!-- Generator: Sketch 64 (93537) - https://sketch.com -->
    <title>x5/icon/star-fill</title>
    <desc>Created with Sketch.</desc>
    <g id=".x5/icon/star-fill" stroke="none" stroke-width="1"  fill-rule="evenodd">
        <g transform="translate(4.000000, 4.000000)" fill="#171718" id="Star">
            <path d="M7.99997088,13.5445146 L4.50722366,15.8064556 C3.94521194,16.1704205 3.1970115,16.006054 2.83607121,15.4393327 C2.66079752,15.1641312 2.60249336,14.8294696 2.67425267,14.5105061 L3.64612923,10.1906042 L0.400022268,7.24237013 C-0.0962785876,6.79161138 -0.136234376,6.02049645 0.310778518,5.52003672 C0.516510288,5.28970675 0.801503142,5.14702036 1.10782428,5.12098257 L5.30914875,4.76386318 L6.87535976,0.771274151 C7.12104847,0.144963879 7.82372407,-0.161921869 8.44482963,0.085825648 C8.75560155,0.209786814 9.00165095,0.457898047 9.12458199,0.771274151 L10.690793,4.76386318 L14.8921175,5.12098257 C15.5576904,5.17755735 16.0517621,5.76749506 15.9956575,6.43864532 C15.969836,6.74753336 15.8283354,7.03491438 15.5999195,7.24237013 L12.3538125,10.1906042 L13.3256891,14.5105061 C13.4734627,15.1673461 13.0652077,15.8206182 12.4138261,15.9696301 C12.0975132,16.0419908 11.7656327,15.983198 11.4927181,15.8064556 L7.99997088,13.5445146 Z"></path>
        </g>
    </g>
</svg>