<?xml version="1.0" encoding="UTF-8"?>
<svg width="24px" height="24px" viewBox="0 0 24 24" version="1.1" xmlns="http://www.w3.org/2000/svg" xmlns:xlink="http://www.w3.org/1999/xlink">
    <!-- Generator: Sketch 64 (93537) - https://sketch.com -->
    <title>x5/icon/Statistic</title>
    <desc>Created with Sketch.</desc>
    <g id=".x5/icon/Statistic" stroke="none" stroke-width="1"  fill-rule="evenodd">
        <g id=".x5/Icon/Statistic" transform="translate(5.000000, 5.000000)" fill="#171718">
            <path d="M1,7 C1.55228475,7 2,7.44771525 2,8 L2,14 C2,14.5522847 1.55228475,15 1,15 C0.44771525,15 0,14.5522847 0,14 L0,8 C0,7.44771525 0.44771525,7 1,7 Z M5,10 C5.55228475,10 6,10.4477153 6,11 L6,14 C6,14.5522847 5.55228475,15 5,15 C4.44771525,15 4,14.5522847 4,14 L4,11 C4,10.4477153 4.44771525,10 5,10 Z M9,4 C9.55228475,4 10,4.44771525 10,5 L10,14 C10,14.5522847 9.55228475,15 9,15 C8.44771525,15 8,14.5522847 8,14 L8,5 C8,4.44771525 8.44771525,4 9,4 Z M13,0 C13.5522847,0 14,0.44771525 14,1 L14,14 C14,14.5522847 13.5522847,15 13,15 C12.4477153,15 12,14.5522847 12,14 L12,1 C12,0.44771525 12.4477153,0 13,0 Z" id="Statistic"></path>
        </g>
    </g>
</svg>