<svg xmlns="http://www.w3.org/2000/svg" width="16" height="18" viewBox="0 0 16 18">
    <path fill="#8B8B8B" fill-rule="evenodd" d="M13 0c1.657 0 3 1.343 3 3v12c0 1.657-1.343 3-3 3H3c-1.657 0-3-1.343-3-3V3c0-1.657 1.343-3 3-3h10zm0 2H3c-.552 0-1 .448-1 1v12c0 .552.448 1 1 1h10c.552 0 1-.448 1-1V3c0-.552-.448-1-1-1zM5 8c.552 0 1 .448 1 1s-.448 1-1 1-1-.448-1-1 .448-1 1-1zm6 0c.552 0 1 .448 1 1s-.448 1-1 1H8c-.552 0-1-.448-1-1s.448-1 1-1h3zM5 4c.552 0 1 .448 1 1s-.448 1-1 1-1-.448-1-1 .448-1 1-1zm6 0c.552 0 1 .448 1 1s-.448 1-1 1H8c-.552 0-1-.448-1-1s.448-1 1-1h3z"/>
</svg>
