<?xml version="1.0" encoding="UTF-8"?>
<svg width="24px" height="24px" viewBox="0 0 24 24" version="1.1" xmlns="http://www.w3.org/2000/svg" xmlns:xlink="http://www.w3.org/1999/xlink">
    <!-- Generator: Sketch 64 (93537) - https://sketch.com -->
    <title>x5/icon/user</title>
    <desc>Created with Sketch.</desc>
    <g id=".x5/icon/user" stroke="none" stroke-width="1"  fill-rule="evenodd">
        <g transform="translate(5.000000, 4.000000)" fill="#171718" id="user">
            <path d="M7,0 C9.76142375,0 12,2.23857625 12,5 C12,6.5207562 11.32107,7.8829398 10.2497785,8.79998246 C12.4793821,9.9693475 14,12.3070941 14,15 C14,15.5522847 13.5522847,16 13,16 C12.4477153,16 12,15.5522847 12,15 C12,12.2385763 9.76142375,10 7,10 C4.23857625,10 2,12.2385763 2,15 C2,15.5522847 1.55228475,16 1,16 C0.44771525,16 0,15.5522847 0,15 C0,12.3070941 1.52061793,9.9693475 3.75003905,8.79857502 C2.67892995,7.8829398 2,6.5207562 2,5 C2,2.23857625 4.23857625,0 7,0 Z M7,2 C5.34314575,2 4,3.34314575 4,5 C4,6.65685425 5.34314575,8 7,8 C8.65685425,8 10,6.65685425 10,5 C10,3.34314575 8.65685425,2 7,2 Z"></path>
        </g>
    </g>
</svg>