<?xml version="1.0" encoding="UTF-8"?>
<svg width="24px" height="24px" viewBox="0 0 24 24" version="1.1" xmlns="http://www.w3.org/2000/svg" xmlns:xlink="http://www.w3.org/1999/xlink">
    <!-- Generator: Sketch 64 (93537) - https://sketch.com -->
    <title>x5/icon/View</title>
    <desc>Created with Sketch.</desc>
    <g id=".x5/icon/View" stroke="none" stroke-width="1"  fill-rule="evenodd">
        <g transform="translate(2.000000, 6.000000)" fill="#171718" id="Combined-Shape">
            <path d="M10.0001457,-1.0000889e-12 C14.3215774,-1.0000889e-12 17.6464431,1.84714763 19.8547027,5.48064228 C20.141536,5.95260104 19.9914622,6.56772359 19.5195035,6.85455694 C19.0475447,7.14139029 18.4324221,6.99131649 18.1455888,6.51935772 C17.401605,5.29519854 16.5221461,4.32302057 15.4993207,3.59882687 C15.821869,4.33431802 16.0001457,5.14633962 16.0001457,6 C16.0001457,9.3137085 13.3138542,12 10.0001457,12 C6.68643724,12 4.00014574,9.3137085 4.00014574,6 C4.00014574,5.14672783 4.17826041,4.33505656 4.49933778,3.60013818 C3.47761745,4.32360423 2.59846316,5.29556599 1.85470267,6.51935772 C1.56786932,6.99131649 0.952746777,7.14139029 0.480788013,6.85455694 C0.00882924985,6.56772359 -0.14124455,5.95260104 0.1455888,5.48064228 C2.35384834,1.84714763 5.67871408,-1.0000889e-12 10.0001457,-1.0000889e-12 Z M10.0001457,2 C7.79100674,2 6.00014574,3.790861 6.00014574,6 C6.00014574,8.209139 7.79100674,10 10.0001457,10 C12.2092847,10 14.0001457,8.209139 14.0001457,6 C14.0001457,3.790861 12.2092847,2 10.0001457,2 Z M10.0001457,3 C11.657,3 13.0001457,4.34314575 13.0001457,6 C13.0001457,6.55228475 12.5524305,7 12.0001457,7 C11.447861,7 11.0001457,6.55228475 11.0001457,6 L11.0001457,6 L10.993418,5.88337887 C10.9356529,5.38604019 10.5129816,5 10.0001457,5 C9.44786099,5 9.00014574,5.44771525 9.00014574,6 L9.00014574,6 L8.993418,6.11662113 C8.9356529,6.61395981 8.51298157,7 8.00014574,7 C7.44786099,7 7.00014574,6.55228475 7.00014574,6 C7.00014574,4.34314575 8.34329149,3 10.0001457,3 Z"></path>
        </g>
    </g>
</svg>