<?xml version="1.0" encoding="UTF-8"?>
<svg width="24px" height="24px" viewBox="0 0 24 24" version="1.1" xmlns="http://www.w3.org/2000/svg" xmlns:xlink="http://www.w3.org/1999/xlink">
    <!-- Generator: Sketch 64 (93537) - https://sketch.com -->
    <title>x5/icon/Arrow/Down</title>
    <desc>Created with Sketch.</desc>
    <g id=".x5/icon/Arrow/Down" stroke="none" stroke-width="1"  fill-rule="evenodd">
        <g transform="translate(6.000000, 3.000000)" fill="#171718" id="Combined-Shape">
            <path d="M6,-1.77635684e-15 C6.55228475,-1.77635684e-15 7,0.44771525 7,1 L7,14.584 L10.2928932,11.2928932 C10.6834175,10.9023689 11.3165825,10.9023689 11.7071068,11.2928932 C12.0976311,11.6834175 12.0976311,12.3165825 11.7071068,12.7071068 L6.70710678,17.7071068 C6.67922142,17.7349921 6.64969682,17.7612383 6.61868994,17.7856883 L6.70710678,17.7071068 C6.67171273,17.7425008 6.63432558,17.774687 6.59530661,17.8036654 C6.57113069,17.8215099 6.54627495,17.8382813 6.52066019,17.8539326 C6.50861311,17.8613931 6.49639444,17.8685012 6.4840621,17.8753288 C6.46429395,17.8862061 6.4438914,17.8966234 6.42309915,17.9063462 C6.4060985,17.914321 6.38879565,17.9218036 6.37133602,17.9287745 C6.3515792,17.9366843 6.33179768,17.9438775 6.31173641,17.9504533 L6.31214252,17.9502619 L6.29184367,17.9566726 C6.28160232,17.9597872 6.27132083,17.9627338 6.26100354,17.9655125 C6.25036058,17.9684635 6.23985799,17.9711102 6.22929083,17.9735893 L6.202746,17.9793458 C6.18307364,17.9833994 6.16330285,17.9868563 6.14346259,17.9897165 C6.12472775,17.9924869 6.10534946,17.9947092 6.08581099,17.9963697 C6.06792309,17.997855 6.05059097,17.9988772 6.03324678,17.9994506 C6.02240189,17.9998151 6.01122253,18 6,18 L5.96774538,17.9994829 C5.94973363,17.9989053 5.93173451,17.9978436 5.9137692,17.9962979 L5.88337887,17.9932723 L5.88337887,17.9932723 L5.85653741,17.9897165 C5.83669715,17.9868563 5.81692636,17.9833994 5.797254,17.9793458 C5.78834674,17.9776005 5.77950559,17.975653 5.77070917,17.9735893 L5.73899646,17.9655125 C5.72867917,17.9627338 5.71839768,17.9597872 5.70815633,17.9566726 L5.68826359,17.9504533 C5.66820232,17.9438775 5.6484208,17.9366843 5.62894148,17.928896 C5.61120435,17.9218036 5.5939015,17.914321 5.57677845,17.9063266 C5.5561086,17.8966234 5.53570605,17.8862061 5.51572305,17.8751242 C5.50360556,17.8685012 5.49138689,17.8613931 5.47929125,17.8540045 C5.45372505,17.8382813 5.42886931,17.8215099 5.4048407,17.8036865 C5.39879136,17.7992821 5.39292666,17.7948255 5.38710056,17.7902954 C5.35030318,17.7612383 5.32077858,17.7349921 5.29289322,17.7071068 L0.292893219,12.7071068 C-0.0976310729,12.3165825 -0.0976310729,11.6834175 0.292893219,11.2928932 C0.683417511,10.9023689 1.31658249,10.9023689 1.70710678,11.2928932 L5,14.585 L5,1 C5,0.44771525 5.44771525,-1.77635684e-15 6,-1.77635684e-15 Z"></path>
        </g>
    </g>
</svg>