<?xml version="1.0" encoding="UTF-8"?>
<svg width="24px" height="24px" viewBox="0 0 24 24" version="1.1" xmlns="http://www.w3.org/2000/svg" xmlns:xlink="http://www.w3.org/1999/xlink">
    <!-- Generator: Sketch 64 (93537) - https://sketch.com -->
    <title>x5/icon/Arrow/Left</title>
    <desc>Created with Sketch.</desc>
    <g id=".x5/icon/Arrow/Left" stroke="none" stroke-width="1"  fill-rule="evenodd">
        <g transform="translate(3.000000, 6.000000)" fill="#171718" id="Combined-Shape">
            <path d="M5.29289322,0.292893219 C5.68341751,-0.0976310729 6.31658249,-0.0976310729 6.70710678,0.292893219 C7.09763107,0.683417511 7.09763107,1.31658249 6.70710678,1.70710678 L6.70710678,1.70710678 L3.414,5 L17,5 C17.5128358,5 17.9355072,5.38604019 17.9932723,5.88337887 L18,6 C18,6.55228475 17.5522847,7 17,7 L17,7 L3.415,7 L6.70710678,10.2928932 C7.06759074,10.6533772 7.09532028,11.2206082 6.79029539,11.6128994 L6.70710678,11.7071068 C6.31658249,12.0976311 5.68341751,12.0976311 5.29289322,11.7071068 L5.29289322,11.7071068 L0.292893219,6.70710678 L0.292893219,6.70710678 L0.219688767,6.62544899 L0.219688767,6.62544899 C0.206560601,6.60897037 0.1987958,6.5987432 0.191254046,6.58840405 C0.175269908,6.56633584 0.160211295,6.54380794 0.146067433,6.52066019 C0.138606922,6.50861311 0.131498828,6.49639444 0.124671174,6.4840621 C0.11379392,6.46429395 0.103376643,6.4438914 0.0936537803,6.42309915 C0.0856790475,6.4060985 0.0781964242,6.38879565 0.0712254916,6.37133602 C0.0633157362,6.3515792 0.0561224864,6.33179768 0.0495466818,6.31173641 C0.0447287157,6.29685134 0.0400977346,6.28146328 0.0358451423,6.26599297 C0.0298336259,6.24443648 0.0246397952,6.22274608 0.0201651536,6.2007941 C0.0167021706,6.18337526 0.0136280806,6.16594901 0.0110178009,6.14846687 C0.00376118706,6.10036209 -2.84217094e-14,6.05062028 -2.84217094e-14,6 L0.00396640833,6.08925007 C0.00189498016,6.06599489 0.000634893312,6.04268105 0.000186147798,6.0193545 L-2.84217094e-14,6 C-2.84217094e-14,5.99359377 6.02394911e-05,5.9872016 0.000180182926,5.98082404 C0.000599315847,5.95798023 0.00186560354,5.93433491 0.00396640833,5.91074993 C0.00576611731,5.89015296 0.00811222997,5.87050421 0.0110193427,5.85103878 C0.0136280806,5.83405099 0.0167021706,5.81662474 0.020240071,5.79927424 C0.0246397952,5.77725392 0.0298336259,5.75556352 0.0357209664,5.73416039 C0.0400977346,5.71853672 0.0447287157,5.70314866 0.0497380859,5.68785748 C0.0561224864,5.66820232 0.0633157362,5.6484208 0.0711039637,5.62894148 C0.0781964242,5.61120435 0.0856790475,5.5939015 0.0936733617,5.57677845 C0.103376643,5.5561086 0.11379392,5.53570605 0.12487577,5.51572305 C0.131498828,5.50360556 0.138606922,5.49138689 0.145995454,5.47929125 C0.1617187,5.45372505 0.178490093,5.42886931 0.196313506,5.4048407 C0.225312953,5.36567442 0.257499166,5.32828727 0.292893219,5.29289322 L0.214311747,5.38131006 C0.238761715,5.35030318 0.265007853,5.32077858 0.292893219,5.29289322 Z"></path>
        </g>
    </g>
</svg>