<?xml version="1.0" encoding="UTF-8"?>
<svg width="24px" height="24px" viewBox="0 0 24 24" version="1.1" xmlns="http://www.w3.org/2000/svg" xmlns:xlink="http://www.w3.org/1999/xlink">
    <!-- Generator: Sketch 64 (93537) - https://sketch.com -->
    <title>x5/icon/Arrow/Right</title>
    <desc>Created with Sketch.</desc>
    <g id=".x5/icon/Arrow/Right" stroke="none" stroke-width="1"  fill-rule="evenodd">
        <g transform="translate(3.000000, 6.000000)" fill="#171718" id="Combined-Shape">
            <path d="M11.2928932,0.292893219 C11.6834175,-0.0976310729 12.3165825,-0.0976310729 12.7071068,0.292893219 L12.7071068,0.292893219 L17.7071068,5.29289322 C17.7329588,5.31874528 17.757402,5.34600622 17.7803112,5.37455101 L17.7854516,5.38092108 C17.7948255,5.39292666 17.7992821,5.39879136 17.8036654,5.40469339 C17.8215099,5.42886931 17.8382813,5.45372505 17.8539326,5.47933981 C17.8613931,5.49138689 17.8685012,5.50360556 17.8753288,5.5159379 C17.8862061,5.53570605 17.8966234,5.5561086 17.9063462,5.57690085 C17.914321,5.5939015 17.9218036,5.61120435 17.9287745,5.62866398 C17.9366843,5.6484208 17.9438775,5.66820232 17.9504533,5.68826359 C17.9552713,5.70314866 17.9599023,5.71853672 17.9641549,5.73400703 C17.9701664,5.75556352 17.9753602,5.77725392 17.9798348,5.7992059 C17.9832978,5.81662474 17.9863719,5.83405099 17.9889822,5.85153313 C17.9962388,5.89963791 18,5.94937972 18,6 L17.9962979,5.9137692 C17.9978436,5.93173451 17.9989053,5.94973363 17.9994829,5.96774538 L18,6 C18,6.01122253 17.9998151,6.02240189 17.9994483,6.03353519 C17.9988772,6.05059097 17.997855,6.06792309 17.996384,6.08522423 C17.994564,6.10705742 17.9920941,6.12811445 17.9889807,6.14896122 C17.9863719,6.16594901 17.9832978,6.18337526 17.9797599,6.20072576 C17.9753602,6.22274608 17.9701664,6.24443648 17.964279,6.26583961 C17.9599023,6.28146328 17.9552713,6.29685134 17.9502619,6.31214252 C17.9438775,6.33179768 17.9366843,6.3515792 17.928896,6.37105852 C17.9218036,6.38879565 17.914321,6.4060985 17.9063266,6.42322155 C17.8966234,6.4438914 17.8862061,6.46429395 17.8751242,6.48427695 C17.8685012,6.49639444 17.8613931,6.50861311 17.8540045,6.52070875 C17.8507712,6.525834 17.8475642,6.53097686 17.844312,6.53608818 L17.808746,6.58840405 C17.7784626,6.6299202 17.7445828,6.66963073 17.7071068,6.70710678 L17.7856883,6.61868994 C17.7839054,6.62095086 17.7821131,6.6232039 17.7803112,6.62544899 L17.7071068,6.70710678 L12.7071068,11.7071068 C12.3165825,12.0976311 11.6834175,12.0976311 11.2928932,11.7071068 C10.9023689,11.3165825 10.9023689,10.6834175 11.2928932,10.2928932 L11.2928932,10.2928932 L14.584,7 L1,7 C0.487164161,7 0.0644928393,6.61395981 0.00672773133,6.11662113 L-1.0658141e-14,6 C-1.0658141e-14,5.44771525 0.44771525,5 1,5 L1,5 L14.585,5 L11.2928932,1.70710678 C10.9324093,1.34662282 10.9046797,0.779391764 11.2097046,0.387100557 Z"></path>
        </g>
    </g>
</svg>