<?xml version="1.0" encoding="UTF-8"?>
<svg width="24px" height="24px" viewBox="0 0 24 24" version="1.1" xmlns="http://www.w3.org/2000/svg" xmlns:xlink="http://www.w3.org/1999/xlink">
    <!-- Generator: Sketch 64 (93537) - https://sketch.com -->
    <title>x5/icon/Arrow/Up</title>
    <desc>Created with Sketch.</desc>
    <g id=".x5/icon/Arrow/Up" stroke="none" stroke-width="1"  fill-rule="evenodd">
        <g transform="translate(6.000000, 3.000000)" fill="#171718" id="Combined-Shape">
            <path d="M6,-1.77635684e-15 L6.0193545,0.000186147798 L6.0193545,0.000186147798 L6.05903139,0.00173309597 C6.07079301,0.00242435932 6.08254476,0.00332241085 6.09428071,0.00442725056 L6.11662113,0.00672773133 L6.11662113,0.00672773133 L6.14346259,0.0102834919 C6.16330285,0.0131437302 6.18307364,0.0166006261 6.202746,0.0206541794 C6.21165326,0.0223995093 6.22049441,0.0243470447 6.22929083,0.0264107128 L6.26100354,0.0344874959 L6.26100354,0.0344874959 L6.29184367,0.0433273992 C6.29862799,0.0453906087 6.30539469,0.0475275043 6.31214252,0.0497380859 C6.33179768,0.0561224864 6.3515792,0.0633157362 6.37105852,0.0711039637 C6.38879565,0.0781964242 6.4060985,0.0856790475 6.42322155,0.0936733617 C6.4438914,0.103376643 6.46429395,0.11379392 6.48427695,0.12487577 C6.49639444,0.131498828 6.50861311,0.138606922 6.52070875,0.145995454 C6.525834,0.149228767 6.53097686,0.1524358 6.53608818,0.155687972 L6.58840405,0.191254046 C6.5987432,0.1987958 6.60897037,0.206560601 6.61907892,0.214548447 C6.62095086,0.216094558 6.6232039,0.217886918 6.62544899,0.219688767 L6.70710678,0.292893219 L6.70710678,0.292893219 L11.7071068,5.29289322 C12.0976311,5.68341751 12.0976311,6.31658249 11.7071068,6.70710678 C11.3165825,7.09763107 10.6834175,7.09763107 10.2928932,6.70710678 L7,3.415 L7,17 C7,17.5522847 6.55228475,18 6,18 C5.44771525,18 5,17.5522847 5,17 L5,3.414 L1.70710678,6.70710678 C1.31658249,7.09763107 0.683417511,7.09763107 0.292893219,6.70710678 C-0.0976310729,6.31658249 -0.0976310729,5.68341751 0.292893219,5.29289322 L5.29289322,0.292893219 L5.37455101,0.219688767 C5.3767961,0.217886918 5.37904914,0.216094558 5.38131006,0.214311747 L5.29289322,0.292893219 C5.33036927,0.255417163 5.3700798,0.221537439 5.41159595,0.191254046 C5.43366416,0.175269908 5.45619206,0.160211295 5.47933981,0.146067433 C5.49138689,0.138606922 5.50360556,0.131498828 5.5159379,0.124671174 C5.53570605,0.11379392 5.5561086,0.103376643 5.57690085,0.0936537803 C5.5939015,0.0856790475 5.61120435,0.0781964242 5.62866398,0.0712254916 C5.6484208,0.0633157362 5.66820232,0.0561224864 5.68826359,0.0495466818 C5.69460531,0.0475275043 5.70137201,0.0453906087 5.70815633,0.0433273992 L5.73920434,0.0343478124 C5.74963942,0.0315364896 5.76014201,0.0288898039 5.77070917,0.0264107128 L5.797254,0.0206541794 C5.81692636,0.0166006261 5.83669715,0.0131437302 5.85653741,0.0102834919 C5.86513445,0.00897443161 5.87423786,0.00778944536 5.88337887,0.00672773133 L5.90571929,0.00442725056 C5.91745524,0.00332241085 5.92920699,0.00242435932 5.94096861,0.00173309597 L5.98082404,0.000180182926 C5.9872016,6.02394912e-05 5.99359377,-1.77635684e-15 6,-1.77635684e-15 Z"></path>
        </g>
    </g>
</svg>