<?xml version="1.0" encoding="UTF-8"?>
<svg width="24px" height="24px" viewBox="0 0 24 24" version="1.1" xmlns="http://www.w3.org/2000/svg" xmlns:xlink="http://www.w3.org/1999/xlink">
    <!-- Generator: Sketch 64 (93537) - https://sketch.com -->
    <title>x5/icon/Language/ENG</title>
    <desc>Created with Sketch.</desc>
    <defs>
        <polygon id="path-1" points="0.0152292124 0.0281309824 15.9723897 0.0281309824 15.9723897 15.9447265 0.0152292124 15.9447265"></polygon>
    </defs>
    <g id=".x5/icon/Language/ENG" stroke="none" stroke-width="1"  fill-rule="evenodd">
        <g id="ENG" transform="translate(4.000000, 4.000000)">
            <g id="fill" transform="translate(0.000000, 0.012171)">
                <mask id="mask-2" fill="white">
                    <use xlink:href="#path-1"></use>
                </mask>
                <g id="Clip-5"></g>
                <path d="M0.250957576,6.07488967 C1.30913939,1.80820957 5.63406869,-0.792697229 9.9101899,0.263101259 C14.1874828,1.31841612 16.7950384,5.63180655 15.7369374,9.89780151 C14.6785535,14.1636756 10.3543111,16.7657108 6.07734141,15.7097108 C1.80089697,14.654396 -0.808072727,10.3407637 0.250957576,6.07488967" id="Fill-4" fill="#223C72" mask="url(#mask-2)"></path>
            </g>
            <path d="M13.6524727,2.38867909 L10.4447152,4.52159597 L10.4447152,0.42720806 C10.2695636,0.371067003 10.0916242,0.320044332 9.91025051,0.275268514 C8.40528081,-0.0963183879 6.89437172,-0.0143838791 5.52192727,0.433132494 L5.52192727,4.5220796 L2.32685657,2.39778741 C1.5952202,3.13302166 1.00071515,4.01793854 0.596674747,5.02033652 L1.44285657,5.58295617 L0.394250505,5.58295617 C0.34160404,5.74839698 0.29340202,5.91621562 0.250977778,6.08709723 C-0.124375758,7.59895617 -0.0385979798,9.11661864 0.418614141,10.4933844 L1.46374545,10.4933844 L0.626694949,11.049999 C1.03259394,12.0230166 1.62944242,12.9100695 2.38253333,13.6548957 L5.52192727,11.5677622 L5.52192727,15.5632887 C5.70370505,15.6222106 5.88883636,15.6754096 6.07740202,15.7218378 C7.57477576,16.0916514 9.07780606,16.0124171 10.4447152,15.5708655 L10.4447152,11.5677622 L13.5966343,13.6632383 C14.336998,12.9360645 14.9418869,12.0582005 15.3570384,11.0614851 L14.5025737,10.4933844 L15.5685939,10.4933844 C15.631503,10.3026338 15.6877859,10.1080544 15.7369576,9.91000907 C16.1047152,8.42708715 16.0292404,6.93848262 15.5949374,5.58295617 L14.5237859,5.58295617 L15.3864525,5.00941461 C14.9885535,4.03232645 14.3993818,3.13963123 13.6524727,2.38867909" id="Fill-7" fill="#FFFFFF"></path>
            <path d="M11.7258626,10.4933884 L14.6285697,12.4188695 C14.827398,12.1219627 15.0072768,11.8095395 15.1662263,11.4829703 L13.6740646,10.4933481 L11.7258626,10.4933884 Z M15.8490949,6.60554962 L9.41951919,6.60554962 L9.41951919,0.170607557 C8.44481212,-0.0068836272 7.47434747,0.000975314861 6.54711515,0.172058438 L6.54711515,6.60554962 L0.140812121,6.60554962 C-0.0335717172,7.57776121 -0.0218545455,8.54545894 0.152933333,9.46958992 L6.54711515,9.46958992 L6.54711515,15.8226781 C7.5215798,16.0029501 8.49204444,15.9973884 9.41951919,15.8288443 L9.41951919,9.46958992 L15.8328121,9.46958992 C16.0169333,8.4984262 16.0144687,7.53080907 15.8490949,6.60554962 L15.8490949,6.60554962 Z M1.35487273,12.409197 C1.55446869,12.7083204 1.7745899,12.9939426 2.01341818,13.2642902 L5.52190303,10.9369552 L5.52190303,10.4933884 L4.24303434,10.4933884 L1.35487273,12.409197 Z M14.6423475,3.6024262 C14.4433576,3.30265793 14.2237212,3.01631033 13.9853778,2.74523728 L10.4447717,5.09389219 L10.4447717,5.5830005 L11.6573374,5.5830005 L14.6423475,3.6024262 Z M4.29483232,5.5830005 L1.33293333,3.61782166 C1.13592323,3.91593753 0.95749899,4.22920705 0.800408081,4.55698539 L2.34650909,5.5830005 L4.29483232,5.5830005 Z" id="Fill-9" fill="#EE3826"></path>
        </g>
    </g>
</svg>