<svg xmlns="http://www.w3.org/2000/svg" width="24" height="24" viewBox="0 0 24 24">
    <g fill="none" fill-rule="evenodd">
        <path fill="#5EB245" d="M15.079 7.554l-3.13 3.129-3.128-3.13c-1.728-1.727-1.728-4.529 0-6.257 1.728-1.728 4.53-1.728 6.258 0 1.728 1.728 1.728 4.53 0 6.258"/>
        <path fill="#164E2C" d="M8.821 16.346l3.129-3.129 3.129 3.13c1.728 1.727 1.728 4.529 0 6.257-1.728 1.728-4.53 1.728-6.258 0-1.728-1.728-1.728-4.53 0-6.258"/>
        <path fill="#1D8642" d="M16.346 15.079l-3.129-3.13 3.129-3.128c1.728-1.728 4.53-1.728 6.258 0 1.728 1.728 1.728 4.53 0 6.258-1.728 1.728-4.53 1.728-6.258 0"/>
        <path fill="#99C973" d="M7.554 8.821l3.129 3.13-3.13 3.128c-1.727 1.728-4.529 1.728-6.257 0-1.728-1.728-1.728-4.53 0-6.258 1.728-1.728 4.53-1.728 6.258 0"/>
    </g>
</svg>
