<?xml version="1.0" encoding="UTF-8"?>
<svg width="171px" height="32px" viewBox="0 0 171 32" version="1.1" xmlns="http://www.w3.org/2000/svg" xmlns:xlink="http://www.w3.org/1999/xlink">
    <!-- Generator: Sketch 64 (93537) - https://sketch.com -->
    <title>Logo</title>
    <desc>Created with Sketch.</desc>
    <defs>
        <rect id="path-1" x="0" y="0" width="32" height="32" rx="4"></rect>
    </defs>
    <g id="Login" stroke="none" stroke-width="1"  fill-rule="evenodd">
        <g transform="translate(-591.000000, -312.000000)" id="Group">
            <g transform="translate(533.000000, 312.000000)">
                <g id="Logo" transform="translate(58.000000, 0.000000)">
                    <text id="X5.IMPORT" font-family="Montserrat-Medium, Montserrat" font-size="22" font-weight="400" line-spacing="32">
                        <tspan x="44" y="21" fill="#BDBDBD">X5.</tspan>
                        <tspan x="76.428" y="21" font-family="Montserrat-Black, Montserrat" font-weight="700" fill="#2C2C2C">IMPORT</tspan>
                    </text>
                    <g>
                        <mask id="mask-2" fill="white">
                            <use xlink:href="#path-1"></use>
                        </mask>
                        <use id="bg" fill="#4DB6AC" xlink:href="#path-1"></use>
                        <path d="M13.0606532,0.439335095 L20.560649,7.93933509 L20.5804207,7.95948008 C20.601912,7.98179064 20.6227188,8.00476521 20.6428072,8.02837 L20.560649,7.93933509 C20.6021018,7.98078796 20.6406213,8.02406339 20.6762073,8.06890346 C20.694173,8.0916869 20.7117671,8.11525476 20.728671,8.13934238 C20.7410657,8.15679847 20.7525685,8.173945 20.7636796,8.19127006 C20.7755824,8.2100553 20.7875492,8.22967005 20.7990717,8.24957413 C20.8118204,8.2713791 20.8237087,8.29318969 20.8350158,8.31522159 C20.9405074,8.52079613 20.9999886,8.75344941 20.9999886,8.99999527 C20.9999886,9.24654113 20.9405074,9.4791944 20.8351125,9.68438758 C20.8237087,9.70680084 20.8118204,9.72861144 20.7993508,9.75017799 C20.7875492,9.77032048 20.7755824,9.78993523 20.7631848,9.80924707 C20.7525685,9.82604554 20.7410657,9.84319206 20.729171,9.86014744 C20.7117671,9.88473577 20.694173,9.90830363 20.6759172,9.93132301 C20.6654345,9.9446614 20.6543927,9.95809234 20.6430822,9.97137273 C20.6227188,9.99522532 20.601912,10.0181999 20.5804207,10.0405105 L20.5806488,10.0402791 L20.560649,10.0606554 L20.560649,10.0606554 L13.0606532,17.5606554 C12.4748671,18.1464419 11.5251201,18.1464419 10.939334,17.5606554 C10.3535479,16.974869 10.3535479,16.0251215 10.939334,15.4393351 L15.878002,10.4999953 L-1.49999804,10.4999953 C-2.32842554,10.4999953 -2.99999804,9.82842239 -2.99999804,8.99999527 C-2.99999804,8.17156814 -2.32842554,7.49999527 -1.49999804,7.49999527 L15.879002,7.49999527 L10.939334,2.56065544 C10.3535479,1.974869 10.3535479,1.02512153 10.939334,0.439335095 C11.5251201,-0.146451343 12.4748671,-0.146451343 13.0606532,0.439335095 Z" id="Combined-Shape" fill="#FFFFFF" mask="url(#mask-2)" transform="translate(8.999995, 8.999995) rotate(45.000000) translate(-8.999995, -8.999995) "></path>
                    </g>
                </g>
            </g>
        </g>
    </g>
</svg>